<svg width="1200" height="675" viewBox="0 0 1200 675" fill="none" xmlns="http://www.w3.org/2000/svg">
<g clip-path="url(#clip0_131_3)">
<rect width="1200" height="675" fill="#D8CCC4"/>
<path d="M1102.5 -34C820.5 165.5 762.485 52.5862 620.895 202.5C464.762 367.813 261.395 514 354.471 619.85C452.288 731.09 641.569 506.932 760.896 404.5C890.556 293.197 877.6 565.489 1456.4 62.5" stroke="#ECE5E2" stroke-width="54"/>
<path d="M158 469L-25.5 657.5L-43 -12L276.5 -33L327.5 96.5L213 201L158 469Z" fill="#F91D00" fill-opacity="0.35" stroke="#E23D44" stroke-width="10"/>
<rect x="755" y="26.5" width="34" height="34" fill="#F91D00"/>
<rect x="618" y="70.5" width="34" height="34" fill="#7FC500"/>
<rect x="821" y="284.5" width="34" height="34" fill="#7FC500"/>
<rect x="874" y="284.5" width="34" height="34" fill="#7FC500"/>
<rect x="1142" y="103.5" width="34" height="34" fill="#F91D00"/>
<rect x="1053" y="103.5" width="34" height="34" fill="#F91D00"/>
<rect x="1013" y="163.5" width="34" height="34" fill="#F91D00"/>
<rect x="1098" y="92.5" width="34" height="34" fill="#F91D00"/>
<rect x="1132" y="146.5" width="34" height="34" fill="#F91D00"/>
<rect x="571" y="104.5" width="34" height="34" fill="#B4AAA3"/>
<rect x="666" y="43.5" width="34" height="34" fill="#B4AAA3"/>
<rect x="531" y="120.5" width="34" height="34" fill="#B4AAA3"/>
<rect x="490" y="151.5" width="34" height="34" fill="#B4AAA3"/>
<rect x="507" y="46.5" width="34" height="34" fill="#F91D00"/>
<rect x="464" y="199.5" width="34" height="34" fill="#7FC500"/>
<rect x="408" y="283.5" width="34" height="34" fill="#F91D00"/>
<rect x="445" y="246.5" width="34" height="34" fill="#F91D00"/>
<rect x="365" y="323.5" width="34" height="34" fill="#B4AAA3"/>
<rect x="331" y="364.5" width="34" height="34" fill="#F91D00"/>
<rect x="300" y="405.5" width="34" height="34" fill="#F91D00"/>
<rect x="394" y="208.5" width="34" height="34" fill="#F91D00"/>
<rect x="611" y="277.5" width="34" height="34" fill="#F91D00"/>
<rect x="571" y="317.5" width="34" height="34" fill="#F91D00"/>
<rect x="518" y="357.5" width="34" height="34" fill="#F91D00"/>
<rect x="487" y="405.5" width="34" height="34" fill="#F91D00"/>
<rect x="428" y="456.5" width="34" height="34" fill="#F91D00"/>
<rect x="388" y="504.5" width="34" height="34" fill="#F91D00"/>
<rect x="374" y="546.5" width="34" height="34" fill="#F91D00"/>
<rect x="291" y="657.5" width="34" height="34" fill="#F91D00"/>
<rect x="251" y="610.5" width="34" height="34" fill="#7FC500"/>
<rect x="238" y="551.5" width="34" height="34" fill="#F91D00"/>
<rect x="251" y="484.5" width="34" height="34" fill="#7FC500"/>
<rect x="251" y="436.5" width="34" height="34" fill="#F91D00"/>
<rect x="258" y="377.5" width="34" height="34" fill="#F91D00"/>
</g>
<defs>
<clipPath id="clip0_131_3">
<rect width="1200" height="675" fill="white"/>
</clipPath>
</defs>
</svg>
