<svg width="1000" height="1000" viewBox="0 0 1000 1000" fill="none" xmlns="http://www.w3.org/2000/svg">
<rect width="559" height="499" transform="translate(98 259)" fill="#1C2D87"/>
<rect width="380.694" height="324.235" transform="translate(656.658 259) rotate(48.7194)" fill="#1C2D87"/>
<path d="M646.192 790C659.309 790 671.642 788.293 683.557 783.401C695.459 778.515 705.845 770.904 715.774 760.604L911.928 560.604L911.99 560.54L912.052 560.476C929.133 542.711 940.154 524.468 940.154 500C940.154 475.532 929.133 457.289 912.052 439.524L911.99 439.46L911.928 439.396L715.774 239.396C705.845 229.096 695.459 221.485 683.557 216.599C671.642 211.707 659.309 210 646.192 210H133.692C93.4731 210 58 246.536 58 288V712C58 753.464 93.4731 790 133.692 790H646.192ZM170.23 718C148.902 718 131.5 701.527 131.5 677V323C131.5 298.473 148.902 282 170.23 282H614.462C631.326 282 642.436 283.711 650.938 287.319C658.948 290.72 666.083 296.428 673.719 307.274L785.213 469.208C794.594 482.869 798.385 490.907 798.385 500C798.385 509.093 794.594 517.131 785.213 530.792L673.719 692.727C666.083 703.572 658.948 709.28 650.938 712.681C642.436 716.289 631.326 718 614.462 718H170.23Z" fill="white" stroke="black" stroke-width="36"/>
<rect width="559" height="499" transform="translate(98 259)" fill="#1C2D87"/>
<rect width="380.694" height="324.235" transform="translate(656.658 259) rotate(48.7194)" fill="#1C2D87"/>
<path d="M646.192 784C658.783 784 670.29 782.361 681.278 777.851C692.259 773.343 701.987 766.268 711.49 756.402L907.645 556.402L907.686 556.36L907.727 556.317C924.242 539.141 934.154 522.312 934.154 500C934.154 477.688 924.242 460.859 907.727 443.683L907.686 443.64L907.645 443.598L711.49 243.598C701.987 233.732 692.259 226.657 681.278 222.149C670.29 217.639 658.783 216 646.192 216H133.692C96.9436 216 64 249.691 64 288V712C64 750.309 96.9436 784 133.692 784H646.192ZM170.23 724C145.435 724 125.5 704.684 125.5 677V323C125.5 295.316 145.435 276 170.23 276H614.462C631.634 276 643.688 277.723 653.282 281.796C662.561 285.735 670.533 292.303 678.682 303.899L790.154 465.805C799.614 479.579 804.385 488.939 804.385 500C804.385 511.064 799.611 520.425 790.146 534.206V534.207L678.682 696.101L677.918 697.174C670.034 708.106 662.271 714.388 653.282 718.204C643.688 722.277 631.634 724 614.462 724H170.23Z" fill="white" stroke="white" stroke-width="24"/>
</svg>
