<svg width="64" height="64" viewBox="0 0 64 64" fill="none" xmlns="http://www.w3.org/2000/svg">
<rect width="33.7274" height="31.1875" transform="translate(7.77539 17.4375)" fill="#1C2D87"/>
<rect width="23.4382" height="19.8713" transform="matrix(0.646546 0.762875 -0.739819 0.672806 41.4824 17.4375)" fill="#1C2D87"/>
<path d="M40.8506 50.5C41.638 50.5 42.3747 50.3934 43.084 50.0918C43.7916 49.7909 44.4089 49.3229 45 48.6875L56.835 36.1875L56.8418 36.1807C57.8644 35.079 58.501 33.9717 58.501 32.5C58.501 31.0283 57.8644 29.921 56.8418 28.8193L56.835 28.8125L45.0059 16.3203C44.4127 15.6813 43.7943 15.2102 43.084 14.9082C42.3747 14.6066 41.638 14.5 40.8506 14.5H9.92871C7.51958 14.5003 5.44824 16.7583 5.44824 19.25V45.75C5.44824 48.2417 7.51958 50.4997 9.92871 50.5H40.8506ZM12.1338 46.25C10.8297 46.25 9.71094 45.1951 9.71094 43.5625V21.4375C9.71094 19.8049 10.8297 18.75 12.1338 18.75H38.9365C39.9559 18.75 40.635 18.8564 41.1592 19.0869C41.6565 19.3056 42.0997 19.6745 42.5703 20.3662L49.3008 30.4912C49.8666 31.3448 50.1191 31.88 50.1191 32.5C50.1191 33.1203 49.8662 33.6555 49.2998 34.5098V34.5107L42.5703 44.6338V44.6348C42.0998 45.326 41.6563 45.6945 41.1592 45.9131C40.635 46.1436 39.9559 46.25 38.9365 46.25H12.1338Z" fill="white" stroke="black" stroke-width="2"/>
<rect width="33.7274" height="31.1875" transform="translate(7.77539 17.4375)" fill="#1C2D87"/>
<rect width="23.4382" height="19.8713" transform="matrix(0.646546 0.762875 -0.739819 0.672806 41.4824 17.4375)" fill="#1C2D87"/>
<path d="M40.8506 49.5C42.2429 49.5 43.2292 49.1249 44.2734 48L56.1084 35.5C57.0366 34.5 57.501 33.625 57.501 32.5C57.501 31.375 57.0366 30.5 56.1084 29.5L44.2734 17C43.2292 15.8751 42.2429 15.5 40.8506 15.5H9.92871C8.13041 15.5003 6.44825 17.2502 6.44824 19.25V45.75C6.44824 47.7498 8.13041 49.4997 9.92871 49.5H40.8506ZM12.1338 47.25C10.2193 47.25 8.71094 45.6875 8.71094 43.5625V21.4375C8.71094 19.3125 10.2193 17.75 12.1338 17.75H38.9365C41.083 17.75 42.3011 18.1876 43.4033 19.8125L50.1328 29.9375C50.713 30.8125 51.1191 31.5625 51.1191 32.5C51.1191 33.4375 50.713 34.1875 50.1328 35.0625L43.4033 45.1875C42.3011 46.8124 41.083 47.25 38.9365 47.25H12.1338Z" fill="white"/>
<path d="M40.8506 49.5C42.2429 49.5 43.2292 49.1249 44.2734 48L56.1084 35.5C57.0366 34.5 57.501 33.625 57.501 32.5C57.501 31.375 57.0366 30.5 56.1084 29.5L44.2734 17C43.2292 15.8751 42.2429 15.5 40.8506 15.5H9.92871C8.13041 15.5003 6.44825 17.2502 6.44824 19.25V45.75C6.44824 47.7498 8.13041 49.4997 9.92871 49.5H40.8506ZM12.1338 47.25C10.2193 47.25 8.71094 45.6875 8.71094 43.5625V21.4375C8.71094 19.3125 10.2193 17.75 12.1338 17.75H38.9365C41.083 17.75 42.3011 18.1876 43.4033 19.8125L50.1328 29.9375C50.713 30.8125 51.1191 31.5625 51.1191 32.5C51.1191 33.4375 50.713 34.1875 50.1328 35.0625L43.4033 45.1875C42.3011 46.8124 41.083 47.25 38.9365 47.25H12.1338Z" stroke="white"/>
</svg>
