<svg width="1000" height="1000" viewBox="0 0 1000 1000" fill="none" xmlns="http://www.w3.org/2000/svg">
<path d="M134.692 772H647.192C670.269 772 686.615 766 703.923 748L900.077 548C915.462 532 923.154 518 923.154 500C923.154 482 915.462 468 900.077 452L703.923 252C686.615 234 670.269 228 647.192 228H134.692C104.885 228 77 256 77 288V712C77 744 104.885 772 134.692 772ZM615.462 736H171.231C139.5 736 114.5 711 114.5 677V323C114.5 289 139.5 264 171.231 264H615.462C651.038 264 671.231 271 689.5 297L801.038 459C810.654 473 817.385 485 817.385 500C817.385 515 810.654 527 801.038 541L689.5 703C671.231 729 651.038 736 615.462 736Z" fill="black"/>
</svg>
